# xmcd
#
# Track frame offsets: 
#        150
#        12187
#        28550
#        44122
#        64720
#        92377
#        117937
#        138812
#        149800
#        189850
#        203557
#        215737
#        235530
#        259045
#
# Disc length: 3644 seconds
#
# Revision: 3
# Processed by: cddbd v1.5.2PL0 Copyright (c) Steve Scherf et al.
# Submitted via: ExactAudioCopy v1.0b3
#
DISCID=c00e3a0e
DTITLE=Robert Lockwood Jr. - I Got To Find Me A Woman
DYEAR=1998
DGENRE=Blues
TTITLE0=Walkin' blues
TTITLE1=Take A Little Walk With Me
TTITLE2=Little Boy Blue
TTITLE3=Feel Like Blowing My Horn
TTITLE4=I Got to  Find Me A Woman
TTITLE5=She's little and She's Low
TTITLE6=Big Legged Woman
TTITLE7=Lockwood's Boogie
TTITLE8=My Daily Wish
TTITLE9=How Long
TTITLE10=Kindhearted Woman Blues
TTITLE11=Everyday i Have The Blues
TTITLE12=Bob and B.
TTITLE13=For You My Love
EXTD=YEAR: 1996 ID3G: 0
EXTT0=
EXTT1=
EXTT2=
EXTT3=
EXTT4=
EXTT5=
EXTT6=
EXTT7=
EXTT8=
EXTT9=
EXTT10=
EXTT11=
EXTT12=
EXTT13=
PLAYORDER=
